<mxfile host="65bd71144e">
    <diagram id="QuLQQzzAlqSp5Rk9_ngd" name="Page-1">
        <mxGraphModel dx="1072" dy="571" grid="1" gridSize="10" guides="1" tooltips="1" connect="1" arrows="1" fold="1" page="1" pageScale="1" pageWidth="850" pageHeight="1100" math="0" shadow="0">
            <root>
                <mxCell id="0"/>
                <mxCell id="1" parent="0"/>
                <mxCell id="6" value="" style="group" vertex="1" connectable="0" parent="1">
                    <mxGeometry x="220" y="70" width="60" height="100" as="geometry"/>
                </mxCell>
                <mxCell id="7" value="" style="shape=note;whiteSpace=wrap;html=1;backgroundOutline=1;darkOpacity=0.05;shadow=1;fillColor=#A88E0A;strokeColor=#000000;movable=1;resizable=1;rotatable=1;deletable=1;editable=1;connectable=1;" vertex="1" parent="6">
                    <mxGeometry width="60" height="70" as="geometry"/>
                </mxCell>
                <mxCell id="8" value="Embbeding e intents" style="text;strokeColor=none;align=center;fillColor=none;html=1;verticalAlign=middle;whiteSpace=wrap;rounded=0;shadow=1;movable=1;resizable=1;rotatable=1;deletable=1;editable=1;connectable=1;" vertex="1" parent="6">
                    <mxGeometry y="70" width="60" height="30" as="geometry"/>
                </mxCell>
                <mxCell id="9" value="" style="group" vertex="1" connectable="0" parent="1">
                    <mxGeometry x="340" y="70" width="60" height="100" as="geometry"/>
                </mxCell>
                <mxCell id="10" value="" style="shape=note;whiteSpace=wrap;html=1;backgroundOutline=1;darkOpacity=0.05;shadow=1;fillColor=#A88E0A;strokeColor=#000000;movable=1;resizable=1;rotatable=1;deletable=1;editable=1;connectable=1;" vertex="1" parent="9">
                    <mxGeometry width="60" height="70" as="geometry"/>
                </mxCell>
                <mxCell id="11" value="Llama" style="text;strokeColor=none;align=center;fillColor=none;html=1;verticalAlign=middle;whiteSpace=wrap;rounded=0;shadow=1;movable=1;resizable=1;rotatable=1;deletable=1;editable=1;connectable=1;" vertex="1" parent="9">
                    <mxGeometry y="70" width="60" height="30" as="geometry"/>
                </mxCell>
                <mxCell id="12" value="" style="group" vertex="1" connectable="0" parent="1">
                    <mxGeometry x="500" y="70" width="60" height="100" as="geometry"/>
                </mxCell>
                <mxCell id="13" value="" style="shape=note;whiteSpace=wrap;html=1;backgroundOutline=1;darkOpacity=0.05;shadow=1;fillColor=#A88E0A;strokeColor=#000000;movable=1;resizable=1;rotatable=1;deletable=1;editable=1;connectable=1;" vertex="1" parent="12">
                    <mxGeometry width="60" height="70" as="geometry"/>
                </mxCell>
                <mxCell id="14" value="Banco de Dados" style="text;strokeColor=none;align=center;fillColor=none;html=1;verticalAlign=middle;whiteSpace=wrap;rounded=0;shadow=1;movable=1;resizable=1;rotatable=1;deletable=1;editable=1;connectable=1;" vertex="1" parent="12">
                    <mxGeometry y="70" width="60" height="30" as="geometry"/>
                </mxCell>
                <mxCell id="15" value="" style="group" vertex="1" connectable="0" parent="1">
                    <mxGeometry x="55" y="70" width="90" height="100" as="geometry"/>
                </mxCell>
                <mxCell id="2" value="" style="shape=note;whiteSpace=wrap;html=1;backgroundOutline=1;darkOpacity=0.05;shadow=1;fillColor=#A88E0A;strokeColor=#000000;movable=1;resizable=1;rotatable=1;deletable=1;editable=1;connectable=1;container=0;" vertex="1" parent="15">
                    <mxGeometry x="15" width="60" height="70" as="geometry"/>
                </mxCell>
                <mxCell id="4" value="Recebe / Envia mensagem" style="text;strokeColor=none;align=center;fillColor=none;html=1;verticalAlign=middle;whiteSpace=wrap;rounded=0;shadow=1;movable=1;resizable=1;rotatable=1;deletable=1;editable=1;connectable=1;container=0;" vertex="1" parent="15">
                    <mxGeometry y="70" width="90" height="30" as="geometry"/>
                </mxCell>
            </root>
        </mxGraphModel>
    </diagram>
</mxfile>